{"title":"Seconds Apart-AC3-XviD-DVDRip 2011 TBS","uid":6437738,"size":1506692159,"categoryP":"video","categoryS":"movies","magnet":"?xt=urn:btih:70fc6acd89b69e476495715838baa47ea5622d79&amp;dn=Seconds+Apart-AC3-XviD-DVDRip+2011+TBS&amp;tr=udp%3A%2F%2Ftracker.openbittorrent.com%3A80&amp;tr=udp%3A%2F%2Fopen.demonii.com%3A1337&amp;tr=udp%3A%2F%2Ftracker.coppersurfer.tk%3A6969&amp;tr=udp%3A%2F%2Fexodus.desync.com%3A6969","seeders":0,"leechers":1,"uploader":"FatFreddy30","files":-1,"time":1306852330,"description":"Seth and Jonah are twins with a dangerous ability. Telekinesis. Things start to spiral out of their control as their classmates end up dying in twisted and bizarre ways... \n &lt;a href=&quot;\nhttp://www.imdb.com/title/tt1601475/&quot; rel=&quot;nofollow&quot; target=&quot;_NEW&quot;&gt;\nhttp://www.imdb.com/title/tt1601475/&lt;/a&gt;\n\nSubs: Dutch, English.\n\n\nBeoordeeld op hun bevoorrechte levensstijl, zou niemand geloven dat Seth en Jonah een moordende tweeling is die een kwade familieband delen. Verdoemd vanaf het moment van hun geboorte bezitten de broers een groot talent voor telekinese - een kracht die ze gebruiken op de meest afschuwelijk denkbare manieren. Wanneer medestudenten het slachtoffer worden van moord verdenkt de lokale politie de tweeling van betrokkenheid. Wat begon als een jaloerse woedeuitbarsting escaleert in een bovennatuurlijke confrontatie. Broer tegen broer, kwaad tegen kwaad...\n &lt;a href=&quot;\nhttp://www.moviemeter.nl/film/65846&quot; rel=&quot;nofollow&quot; target=&quot;_NEW&quot;&gt;\nhttp://www.moviemeter.nl/film/65846&lt;/a&gt;\n\nSubs: Engels, Nederlands.\n\nGeneral\nComplete name                    : Seconds Apart-AC3-XviD-DVDRip 2011 TBS\\Seconds Apart-AC3-XviD-DVDRip 2011.avi\nFormat                           : AVI\nFormat/Info                      : Audio Video Interleave\nFile size                        : 1.40 GiB\nDuration                         : 1h 28mn\nOverall bit rate                 : 2 261 Kbps\nWriting application              : VirtualDubMod 1.5.4.1 (build 2178/release)\nWriting library                  : VirtualDubMod build 2178/release\nSource                           : Seconds Apart (2011) COMPLETE R1 NTSC DVDR IGUANA\n\nVideo\nID                               : 0\nFormat                           : MPEG-4 Visual\nFormat profile                   : Simple@L3\nFormat settings, BVOP            : No\nFormat settings, QPel            : No\nFormat settings, GMC             : No warppoints\nFormat settings, Matrix          : Default (H.263)\nCodec ID                         : XVID\nCodec ID/Hint                    : XviD\nDuration                         : 1h 28mn\nBit rate                         : 1 804 Kbps\nWidth                            : 720 pixels\nHeight                           : 400 pixels\nDisplay aspect ratio             : 16:9\nFrame rate                       : 23.976 fps\nColor space                      : YUV\nChroma subsampling               : 4:2:0\nBit depth                        : 8 bits\nScan type                        : Progressive\nCompression mode                 : Lossy\nBits/(Pixel*Frame)               : 0.261\nStream size                      : 1.12 GiB (80%)\nWriting library                  : XviD 1.1.2 (UTC 2006-11-01)\n\nAudio\nID                               : 1\nFormat                           : AC-3\nFormat/Info                      : Audio Coding 3\nMode extension                   : CM (complete main)\nCodec ID                         : 2000\nDuration                         : 1h 28mn\nBit rate mode                    : Constant\nBit rate                         : 448 Kbps\nChannel(s)                       : 6 channels\nChannel positions                : Front: L C R, Side: L R, LFE\nSampling rate                    : 48.0 KHz\nBit depth                        : 16 bits\nCompression mode                 : Lossy\nStream size                      : 285 MiB (20%)\nAlignment                        : Split accross interleaves\nInterleave, duration             : 42 ms (1.00 video frame)\nInterleave, preload duration     : 500 ms\n\nEnjoy...\n\nTBS.","torrent":{"xt":"urn:btih:70fc6acd89b69e476495715838baa47ea5622d79","amp;dn":"Seconds+Apart-AC3-XviD-DVDRip+2011+TBS","amp;tr":["udp%3A%2F%2Ftracker.openbittorrent.com%3A80","udp%3A%2F%2Fopen.demonii.com%3A1337","udp%3A%2F%2Ftracker.coppersurfer.tk%3A6969","udp%3A%2F%2Fexodus.desync.com%3A6969"],"infoHash":"70fc6acd89b69e476495715838baa47ea5622d79","infoHashBuffer":{"type":"Buffer","data":[112,252,106,205,137,182,158,71,100,149,113,88,56,186,164,126,165,98,45,121]},"announce":[],"urlList":[]}}